<svg xmlns="http://www.w3.org/2000/svg" width="486" height="124" viewBox="0 0 486 124"><rect width="486" height="124" rx="8" fill="#0B0C16" stroke="#2d3450"/><text x="16" y="30" fill="#ddf7ff" font-family="ui-monospace,Menlo,monospace" font-size="15">Omarchy Hackerman</text><rect x="16" y="48" width="40" height="24" rx="4" fill="#0B0C16"/><rect x="62" y="48" width="40" height="24" rx="4" fill="#50f872"/><rect x="108" y="48" width="40" height="24" rx="4" fill="#4fe88f"/><rect x="154" y="48" width="40" height="24" rx="4" fill="#50f7d4"/><rect x="200" y="48" width="40" height="24" rx="4" fill="#829dd4"/><rect x="246" y="48" width="40" height="24" rx="4" fill="#86a7df"/><rect x="292" y="48" width="40" height="24" rx="4" fill="#7cf8f7"/><rect x="338" y="48" width="40" height="24" rx="4" fill="#ddf7ff"/><rect x="16" y="78" width="40" height="24" rx="4" fill="#2d3450"/><rect x="62" y="78" width="40" height="24" rx="4" fill="#85ff9d"/><rect x="108" y="78" width="40" height="24" rx="4" fill="#9cf7c2"/><rect x="154" y="78" width="40" height="24" rx="4" fill="#a4ffec"/><rect x="200" y="78" width="40" height="24" rx="4" fill="#c4d2ed"/><rect x="246" y="78" width="40" height="24" rx="4" fill="#cddbf4"/><rect x="292" y="78" width="40" height="24" rx="4" fill="#d1fffe"/><rect x="338" y="78" width="40" height="24" rx="4" fill="#ddf7ff"/><defs><linearGradient id="screen" x1="0" y1="0" x2="0" y2="1"><stop offset="0" stop-color="#0B0C16"/><stop offset="1" stop-color="#1f253a"/></linearGradient></defs><rect x="398" y="30" width="72" height="72" rx="16" fill="#1d1d1f"/><rect x="405" y="37" width="58" height="58" rx="11" fill="url(#screen)"/><path d="M422 84 V62 a12 12 0 0 1 24 0 V84 l-4-4 -4 4 -4-4 -4 4 -4-4 z" fill="#ddf7ff"/><circle cx="430" cy="63" r="2.2" fill="#0B0C16"/><circle cx="438" cy="63" r="2.2" fill="#0B0C16"/></svg>
