<svg xmlns="http://www.w3.org/2000/svg" width="486" height="124" viewBox="0 0 486 124"><rect width="486" height="124" rx="8" fill="#16242d" stroke="#304860"/><text x="16" y="30" fill="#d6e2ee" font-family="ui-monospace,Menlo,monospace" font-size="15">Omarchy Lumon</text><rect x="16" y="48" width="40" height="24" rx="4" fill="#16242d"/><rect x="62" y="48" width="40" height="24" rx="4" fill="#4d86b0"/><rect x="108" y="48" width="40" height="24" rx="4" fill="#5e95bc"/><rect x="154" y="48" width="40" height="24" rx="4" fill="#6fa4c9"/><rect x="200" y="48" width="40" height="24" rx="4" fill="#6fb8e3"/><rect x="246" y="48" width="40" height="24" rx="4" fill="#8bc9eb"/><rect x="292" y="48" width="40" height="24" rx="4" fill="#b4e4f6"/><rect x="338" y="48" width="40" height="24" rx="4" fill="#d6e2ee"/><rect x="16" y="78" width="40" height="24" rx="4" fill="#304860"/><rect x="62" y="78" width="40" height="24" rx="4" fill="#73a6cb"/><rect x="108" y="78" width="40" height="24" rx="4" fill="#86b7d8"/><rect x="154" y="78" width="40" height="24" rx="4" fill="#9dcae5"/><rect x="200" y="78" width="40" height="24" rx="4" fill="#f2fcff"/><rect x="246" y="78" width="40" height="24" rx="4" fill="#b1d8ee"/><rect x="292" y="78" width="40" height="24" rx="4" fill="#d1eef8"/><rect x="338" y="78" width="40" height="24" rx="4" fill="#f2fcff"/><defs><linearGradient id="screen" x1="0" y1="0" x2="0" y2="1"><stop offset="0" stop-color="#16242d"/><stop offset="1" stop-color="#243d56"/></linearGradient></defs><rect x="398" y="30" width="72" height="72" rx="16" fill="#1d1d1f"/><rect x="405" y="37" width="58" height="58" rx="11" fill="url(#screen)"/><path d="M422 84 V62 a12 12 0 0 1 24 0 V84 l-4-4 -4 4 -4-4 -4 4 -4-4 z" fill="#f2fcff"/><circle cx="430" cy="63" r="2.2" fill="#16242d"/><circle cx="438" cy="63" r="2.2" fill="#16242d"/></svg>
