<svg xmlns="http://www.w3.org/2000/svg" width="486" height="124" viewBox="0 0 486 124"><rect width="486" height="124" rx="8" fill="#fafafa" stroke="#9e9e9e"/><text x="16" y="30" fill="#212121" font-family="ui-monospace,Menlo,monospace" font-size="15">Omarchy Lupine</text><rect x="16" y="48" width="40" height="24" rx="4" fill="#fafafa"/><rect x="62" y="48" width="40" height="24" rx="4" fill="#c900c4"/><rect x="108" y="48" width="40" height="24" rx="4" fill="#4a2fd0"/><rect x="154" y="48" width="40" height="24" rx="4" fill="#026fde"/><rect x="200" y="48" width="40" height="24" rx="4" fill="#3264eb"/><rect x="246" y="48" width="40" height="24" rx="4" fill="#8a4ad7"/><rect x="292" y="48" width="40" height="24" rx="4" fill="#0c67de"/><rect x="338" y="48" width="40" height="24" rx="4" fill="#212121"/><rect x="16" y="78" width="40" height="24" rx="4" fill="#9e9e9e"/><rect x="62" y="78" width="40" height="24" rx="4" fill="#f930fb"/><rect x="108" y="78" width="40" height="24" rx="4" fill="#9f85e0"/><rect x="154" y="78" width="40" height="24" rx="4" fill="#358fff"/><rect x="200" y="78" width="40" height="24" rx="4" fill="#5482ff"/><rect x="246" y="78" width="40" height="24" rx="4" fill="#b363ff"/><rect x="292" y="78" width="40" height="24" rx="4" fill="#3986ff"/><rect x="338" y="78" width="40" height="24" rx="4" fill="#000000"/><defs><linearGradient id="screen" x1="0" y1="0" x2="0" y2="1"><stop offset="0" stop-color="#fafafa"/><stop offset="1" stop-color="#d0d0d0"/></linearGradient></defs><rect x="398" y="30" width="72" height="72" rx="16" fill="#c9cbcf"/><rect x="405" y="37" width="58" height="58" rx="11" fill="url(#screen)"/><path d="M422 84 V62 a12 12 0 0 1 24 0 V84 l-4-4 -4 4 -4-4 -4 4 -4-4 z" fill="#000000"/><circle cx="430" cy="63" r="2.2" fill="#fafafa"/><circle cx="438" cy="63" r="2.2" fill="#fafafa"/></svg>
