<svg xmlns="http://www.w3.org/2000/svg" width="400" height="124" viewBox="0 0 400 124"><rect width="400" height="124" rx="8" fill="#121212" stroke="#333333"/><text x="16" y="30" fill="#bebebe" font-family="ui-monospace,Menlo,monospace" font-size="15">Omarchy Matte Black</text><rect x="16" y="48" width="40" height="24" rx="4" fill="#121212"/><rect x="62" y="48" width="40" height="24" rx="4" fill="#D35F5F"/><rect x="108" y="48" width="40" height="24" rx="4" fill="#FFC107"/><rect x="154" y="48" width="40" height="24" rx="4" fill="#b91c1c"/><rect x="200" y="48" width="40" height="24" rx="4" fill="#e68e0d"/><rect x="246" y="48" width="40" height="24" rx="4" fill="#D35F5F"/><rect x="292" y="48" width="40" height="24" rx="4" fill="#bebebe"/><rect x="338" y="48" width="40" height="24" rx="4" fill="#bebebe"/><rect x="16" y="78" width="40" height="24" rx="4" fill="#333333"/><rect x="62" y="78" width="40" height="24" rx="4" fill="#B91C1C"/><rect x="108" y="78" width="40" height="24" rx="4" fill="#FFC107"/><rect x="154" y="78" width="40" height="24" rx="4" fill="#b90a0a"/><rect x="200" y="78" width="40" height="24" rx="4" fill="#f59e0b"/><rect x="246" y="78" width="40" height="24" rx="4" fill="#B91C1C"/><rect x="292" y="78" width="40" height="24" rx="4" fill="#eaeaea"/><rect x="338" y="78" width="40" height="24" rx="4" fill="#bebebe"/></svg>
