<svg xmlns="http://www.w3.org/2000/svg" width="400" height="124" viewBox="0 0 400 124"><rect width="400" height="124" rx="8" fill="#2e3440" stroke="#4c566a"/><text x="16" y="30" fill="#d8dee9" font-family="ui-monospace,Menlo,monospace" font-size="15">Omarchy Nord</text><rect x="16" y="48" width="40" height="24" rx="4" fill="#2e3440"/><rect x="62" y="48" width="40" height="24" rx="4" fill="#bf616a"/><rect x="108" y="48" width="40" height="24" rx="4" fill="#a3be8c"/><rect x="154" y="48" width="40" height="24" rx="4" fill="#ebcb8b"/><rect x="200" y="48" width="40" height="24" rx="4" fill="#81a1c1"/><rect x="246" y="48" width="40" height="24" rx="4" fill="#b48ead"/><rect x="292" y="48" width="40" height="24" rx="4" fill="#88c0d0"/><rect x="338" y="48" width="40" height="24" rx="4" fill="#d8dee9"/><rect x="16" y="78" width="40" height="24" rx="4" fill="#4c566a"/><rect x="62" y="78" width="40" height="24" rx="4" fill="#bf616a"/><rect x="108" y="78" width="40" height="24" rx="4" fill="#a3be8c"/><rect x="154" y="78" width="40" height="24" rx="4" fill="#ebcb8b"/><rect x="200" y="78" width="40" height="24" rx="4" fill="#81a1c1"/><rect x="246" y="78" width="40" height="24" rx="4" fill="#b48ead"/><rect x="292" y="78" width="40" height="24" rx="4" fill="#8fbcbb"/><rect x="338" y="78" width="40" height="24" rx="4" fill="#d8dee9"/></svg>
