<svg xmlns="http://www.w3.org/2000/svg" width="486" height="124" viewBox="0 0 486 124"><rect width="486" height="124" rx="8" fill="#2c2525" stroke="#72696a"/><text x="16" y="30" fill="#e6d9db" font-family="ui-monospace,Menlo,monospace" font-size="15">Omarchy Ristretto</text><rect x="16" y="48" width="40" height="24" rx="4" fill="#2c2525"/><rect x="62" y="48" width="40" height="24" rx="4" fill="#fd6883"/><rect x="108" y="48" width="40" height="24" rx="4" fill="#adda78"/><rect x="154" y="48" width="40" height="24" rx="4" fill="#f9cc6c"/><rect x="200" y="48" width="40" height="24" rx="4" fill="#f38d70"/><rect x="246" y="48" width="40" height="24" rx="4" fill="#a8a9eb"/><rect x="292" y="48" width="40" height="24" rx="4" fill="#85dacc"/><rect x="338" y="48" width="40" height="24" rx="4" fill="#e6d9db"/><rect x="16" y="78" width="40" height="24" rx="4" fill="#72696a"/><rect x="62" y="78" width="40" height="24" rx="4" fill="#ff8297"/><rect x="108" y="78" width="40" height="24" rx="4" fill="#c8e292"/><rect x="154" y="78" width="40" height="24" rx="4" fill="#fcd675"/><rect x="200" y="78" width="40" height="24" rx="4" fill="#f8a788"/><rect x="246" y="78" width="40" height="24" rx="4" fill="#bebffd"/><rect x="292" y="78" width="40" height="24" rx="4" fill="#9bf1e1"/><rect x="338" y="78" width="40" height="24" rx="4" fill="#e6d9db"/><defs><linearGradient id="screen" x1="0" y1="0" x2="0" y2="1"><stop offset="0" stop-color="#2c2525"/><stop offset="1" stop-color="#403e41"/></linearGradient></defs><rect x="398" y="30" width="72" height="72" rx="16" fill="#1d1d1f"/><rect x="405" y="37" width="58" height="58" rx="11" fill="url(#screen)"/><path d="M422 84 V62 a12 12 0 0 1 24 0 V84 l-4-4 -4 4 -4-4 -4 4 -4-4 z" fill="#e6d9db"/><circle cx="430" cy="63" r="2.2" fill="#2c2525"/><circle cx="438" cy="63" r="2.2" fill="#2c2525"/></svg>
